<svg xmlns="http://www.w3.org/2000/svg" width="24" height="24" viewBox="0 0 24 24" fill="none">
  <g clip-path="url(#clip0_401_1569)">
    <g clip-path="url(#clip1_401_1569)">
      <path d="M19.6361 5.40378C18.1907 4.73854 16.6648 4.26659 15.0973 4C14.8828 4.38545 14.6888 4.78203 14.5159 5.18808C12.8463 4.93516 11.1484 4.93516 9.47881 5.18808C9.30587 4.78208 9.1118 4.3855 8.8974 4C7.32897 4.26884 5.80205 4.74191 4.35518 5.40726C1.48276 9.67949 0.704092 13.8456 1.09342 17.9526C2.77558 19.202 4.6584 20.1522 6.66003 20.7619C7.11074 20.1525 7.50956 19.5061 7.85226 18.8293C7.20135 18.5849 6.57311 18.2834 5.9748 17.9283C6.13227 17.8135 6.28627 17.6952 6.43508 17.5804C8.17601 18.4034 10.0761 18.8301 12 18.8301C13.9238 18.8301 15.8239 18.4034 17.5648 17.5804C17.7154 17.7039 17.8694 17.8222 18.0251 17.9283C17.4257 18.284 16.7963 18.5861 16.1442 18.8311C16.4865 19.5075 16.8853 20.1534 17.3364 20.7619C19.3398 20.1547 21.224 19.2049 22.9065 17.9544C23.3633 13.1916 22.1261 9.06371 19.6361 5.40378ZM8.34541 15.4269C7.26047 15.4269 6.36414 14.4371 6.36414 13.2194C6.36414 12.0018 7.22932 11.0033 8.34195 11.0033C9.45458 11.0033 10.344 12.0018 10.325 13.2194C10.3059 14.4371 9.45112 15.4269 8.34541 15.4269ZM15.6545 15.4269C14.5678 15.4269 13.675 14.4371 13.675 13.2194C13.675 12.0018 14.5401 11.0033 15.6545 11.0033C16.7689 11.0033 17.6514 12.0018 17.6323 13.2194C17.6133 14.4371 16.7602 15.4269 15.6545 15.4269Z" fill="#667085"/>
    </g>
  </g>
  <defs>
    <clipPath id="clip0_401_1569">
      <rect width="24" height="24" fill="white"/>
    </clipPath>
    <clipPath id="clip1_401_1569">
      <rect width="24" height="24" fill="white"/>
    </clipPath>
  </defs>
</svg>
