<svg width="15" height="15" viewBox="0 0 15 15" fill="none" xmlns="http://www.w3.org/2000/svg">
  <path d="M12.7278 0.706993C13.1183 0.316468 13.7515 0.316468 14.142 0.706993C14.5325 1.09752 14.5325 1.73068 14.142 2.12121L2.12116 14.142C1.73064 14.5325 1.09747 14.5326 0.70695 14.142C0.316426 13.7515 0.316426 13.1183 0.70695 12.7278L12.7278 0.706993Z" fill="#929292"/>
  <path d="M2.12132 0.706994C1.7308 0.316469 1.09763 0.316469 0.707107 0.706993C0.316582 1.09752 0.316583 1.73068 0.707107 2.12121L12.7279 14.142C13.1184 14.5325 13.7516 14.5325 14.1421 14.142C14.5327 13.7515 14.5327 13.1183 14.1421 12.7278L2.12132 0.706994Z" fill="#929292"/>
</svg>
