<svg xmlns="http://www.w3.org/2000/svg" width="24" height="24" viewBox="0 0 24 24" fill="none">
  <path d="M12 2.50002V12M12 12L20.5 7.27773M12 12L3.5 7.27773M12 12V21.5M20.5 16.7222L12.777 12.4317C12.4934 12.2741 12.3516 12.1954 12.2015 12.1645C12.0685 12.1371 11.9315 12.1371 11.7986 12.1645C11.6484 12.1954 11.5066 12.2741 11.223 12.4317L3.5 16.7222M21 16.0586V7.94147C21 7.59883 21 7.4275 20.9495 7.27471C20.9049 7.13953 20.8318 7.01545 20.7354 6.91076C20.6263 6.79242 20.4766 6.70922 20.177 6.54282L12.777 2.43171C12.4934 2.27415 12.3516 2.19537 12.2015 2.16448C12.0685 2.13715 11.9315 2.13715 11.7986 2.16448C11.6484 2.19537 11.5066 2.27415 11.223 2.43171L3.82297 6.54282C3.52345 6.70922 3.37369 6.79242 3.26463 6.91076C3.16816 7.01545 3.09515 7.13953 3.05048 7.27471C3 7.42751 3 7.59883 3 7.94147V16.0586C3 16.4012 3 16.5725 3.05048 16.7253C3.09515 16.8605 3.16816 16.9846 3.26463 17.0893C3.37369 17.2076 3.52345 17.2908 3.82297 17.4572L11.223 21.5683C11.5066 21.7259 11.6484 21.8047 11.7986 21.8356C11.9315 21.8629 12.0685 21.8629 12.2015 21.8356C12.3516 21.8047 12.4934 21.7259 12.777 21.5683L20.177 17.4572C20.4766 17.2908 20.6263 17.2076 20.7354 17.0893C20.8318 16.9846 20.9049 16.8605 20.9495 16.7253C21 16.5725 21 16.4012 21 16.0586Z" stroke="#475467" stroke-width="2" stroke-linecap="round" stroke-linejoin="round"/>
</svg>
