<svg width="64" height="64" viewBox="0 0 64 64" fill="none" xmlns="http://www.w3.org/2000/svg">
  <g clip-path="url(#clip0_4334_13797)">
    <rect width="64" height="64" rx="32" fill="#5865F2"/>
    <path d="M12 37C12 28.5147 12 24.2721 14.636 21.636C17.2721 19 21.5147 19 30 19H38.5C41.7568 19 43.3852 19 44.7064 19.4165C47.5068 20.2995 49.7005 22.4932 50.5835 25.2936C51 26.6148 51 28.2432 51 31.5C51 34.7568 51 36.3852 50.5835 37.7064C49.7005 40.5068 47.5068 42.7005 44.7064 43.5835C43.3852 44 41.7568 44 38.5 44H12V37Z" fill="white"/>
    <rect x="33" y="25" width="13.1415" height="1.99599" rx="0.997997" fill="#5865F2"/>
    <rect x="33" y="29" width="13.1415" height="1.99599" rx="0.997997" fill="#5865F2"/>
    <rect x="33" y="33" width="4.88595" height="1.99599" rx="0.997997" fill="#5865F2"/>
    <path d="M27.005 25.8289C26.1765 25.4453 25.288 25.1626 24.3589 25.0007C24.342 24.9976 24.3251 25.0054 24.3164 25.021C24.2021 25.2261 24.0756 25.4937 23.9869 25.704C22.9877 25.553 21.9936 25.553 21.0149 25.704C20.9263 25.489 20.7951 25.2261 20.6803 25.021C20.6716 25.0059 20.6547 24.9981 20.6378 25.0007C19.7093 25.1621 18.8208 25.4447 17.9917 25.8289C17.9845 25.8321 17.9783 25.8373 17.9743 25.844C16.2889 28.3851 15.8272 30.8636 16.0537 33.3115C16.0547 33.3234 16.0614 33.3349 16.0706 33.3422C17.1826 34.1663 18.2597 34.6666 19.3168 34.9982C19.3337 35.0034 19.3516 34.9971 19.3624 34.9831C19.6124 34.6385 19.8353 34.2751 20.0265 33.893C20.0377 33.8706 20.027 33.844 20.0039 33.8352C19.6504 33.6998 19.3137 33.5348 18.9899 33.3474C18.9642 33.3323 18.9622 33.2953 18.9858 33.2776C19.0539 33.2261 19.1221 33.1725 19.1871 33.1183C19.1989 33.1084 19.2153 33.1063 19.2292 33.1126C21.3567 34.0929 23.66 34.0929 25.7624 33.1126C25.7763 33.1058 25.7927 33.1079 25.805 33.1178C25.8701 33.1719 25.9382 33.2261 26.0069 33.2776C26.0304 33.2953 26.0289 33.3323 26.0033 33.3474C25.6794 33.5384 25.3428 33.6998 24.9887 33.8347C24.9656 33.8435 24.9554 33.8706 24.9667 33.893C25.1619 34.2745 25.3848 34.6379 25.6302 34.9826C25.6405 34.9971 25.6589 35.0034 25.6758 34.9982C26.7381 34.6666 27.8152 34.1663 28.9271 33.3422C28.9368 33.3349 28.943 33.324 28.944 33.312C29.2151 30.482 28.49 28.0238 27.0219 25.8446C27.0184 25.8373 27.0122 25.8321 27.005 25.8289ZM20.3442 31.821C19.7036 31.821 19.1759 31.2275 19.1759 30.4987C19.1759 29.7698 19.6934 29.1764 20.3442 29.1764C21.0001 29.1764 21.5227 29.7751 21.5125 30.4987C21.5125 31.2275 20.9949 31.821 20.3442 31.821ZM24.6638 31.821C24.0233 31.821 23.4955 31.2275 23.4955 30.4987C23.4955 29.7698 24.0131 29.1764 24.6638 29.1764C25.3197 29.1764 25.8424 29.7751 25.8321 30.4987C25.8321 31.2275 25.3197 31.821 24.6638 31.821Z" fill="#5865F2"/>
  </g>
  <defs>
    <clipPath id="clip0_4334_13797">
      <rect width="64" height="64" rx="32" fill="white"/>
    </clipPath>
  </defs>
</svg>
