<svg width="40" height="40" viewBox="0 0 40 40" fill="none" xmlns="http://www.w3.org/2000/svg">
<path d="M40 20C40 8.9543 31.0457 0 20 0C8.9543 0 0 8.9543 0 20C0 31.0457 8.9543 40 20 40C31.0457 40 40 31.0457 40 20Z" fill="#F1F4F9"/>
<path d="M30.5492 9L21.2892 15.8773L23.0019 11.8196L30.5492 9Z" fill="#E2761B"/>
<path d="M9.17244 9L18.3581 15.9424L16.7291 11.8196L9.17244 9Z" fill="#E4761B"/>
<path d="M27.2173 24.9417L24.7512 28.7202L30.0281 30.1717L31.5451 25.0255L27.2173 24.9417Z" fill="#E4761B"/>
<path d="M8.19525 25.0255L9.70293 30.1717L14.9798 28.7202L12.5137 24.9417L8.19525 25.0255Z" fill="#E4761B"/>
<path d="M14.682 18.5574L13.2113 20.7819L18.4508 21.0146L18.2649 15.3842L14.682 18.5574Z" fill="#E4761B"/>
<path d="M25.0396 18.5574L21.4104 15.3192L21.2892 21.0146L26.5197 20.7819L25.0396 18.5574Z" fill="#E4761B"/>
<path d="M14.9798 28.7202L18.1254 27.1844L15.4078 25.0624L14.9798 28.7202Z" fill="#E4761B"/>
<path d="M21.5963 27.1844L24.7512 28.7202L24.3139 25.0624L21.5963 27.1844Z" fill="#E4761B"/>
<path d="M24.7512 28.7202L21.5963 27.1844L21.8477 29.2413L21.8197 30.1066L24.7512 28.7202Z" fill="#D7C1B3"/>
<path d="M14.9798 28.7202L17.9114 30.1066L17.8927 29.2413L18.1254 27.1844L14.9798 28.7202Z" fill="#D7C1B3"/>
<path d="M17.9577 23.7041L15.3333 22.9316L17.1852 22.0845L17.9577 23.7041Z" fill="#233447"/>
<path d="M21.7639 23.7041L22.5365 22.0845L24.3977 22.9316L21.7639 23.7041Z" fill="#233447"/>
<path d="M14.9798 28.7202L15.4265 24.9417L12.5137 25.0255L14.9798 28.7202Z" fill="#CD6116"/>
<path d="M24.3045 24.9417L24.7512 28.7202L27.2173 25.0255L24.3045 24.9417Z" fill="#CD6116"/>
<path d="M26.5197 20.7819L21.2892 21.0146L21.7733 23.7041L22.5459 22.0845L24.4071 22.9316L26.5197 20.7819Z" fill="#CD6116"/>
<path d="M15.3333 22.9316L17.1945 22.0845L17.9577 23.7041L18.4508 21.0146L13.2113 20.7819L15.3333 22.9316Z" fill="#CD6116"/>
<path d="M13.2113 20.7819L15.4078 25.0624L15.3333 22.9316L13.2113 20.7819Z" fill="#E4751F"/>
<path d="M24.407 22.9316L24.3139 25.0624L26.5197 20.7819L24.407 22.9316Z" fill="#E4751F"/>
<path d="M18.4508 21.0146L17.9577 23.7041L18.572 26.8773L18.7116 22.6989L18.4508 21.0146Z" fill="#E4751F"/>
<path d="M21.2891 21.0146L21.0382 22.6895L21.1496 26.8773L21.7733 23.7041L21.2891 21.0146Z" fill="#E4751F"/>
<path d="M21.7733 23.7041L21.1496 26.8773L21.5963 27.1844L24.3139 25.0624L24.4071 22.9315L21.7733 23.7041Z" fill="#F6851B"/>
<path d="M15.3333 22.9315L15.4078 25.0624L18.1254 27.1844L18.572 26.8773L17.9577 23.7041L15.3333 22.9315Z" fill="#F6851B"/>
<path d="M21.8197 30.1066L21.8477 29.2413L21.615 29.0363H18.1066L17.8927 29.2413L17.9114 30.1066L14.9798 28.7202L16.0034 29.5574L18.0785 31H21.6431L23.7277 29.5574L24.7512 28.7202L21.8197 30.1066Z" fill="#C0AD9E"/>
<path d="M21.5963 27.1844L21.1496 26.8773H18.572L18.1254 27.1844L17.8927 29.2414L18.1066 29.0363H21.615L21.8477 29.2414L21.5963 27.1844Z" fill="#161616"/>
<path d="M30.9402 16.324L31.731 12.5271L30.5492 9L21.5963 15.6446L25.0396 18.5574L29.9068 19.9813L30.9866 18.725L30.5211 18.3902L31.2656 17.7109L30.6888 17.2642L31.4332 16.6962L30.9402 16.324Z" fill="#763D16"/>
<path d="M8 12.5271L8.79083 16.324L8.28843 16.6962L9.0329 17.2642L8.46542 17.7109L9.20989 18.3902L8.74448 18.725L9.81484 19.9813L14.682 18.5574L18.1254 15.6446L9.17243 9L8 12.5271Z" fill="#763D16"/>
<path d="M29.9068 19.9813L25.0396 18.5574L26.5197 20.7819L24.3139 25.0624L27.2173 25.0255H31.5451L29.9068 19.9813Z" fill="#F6851B"/>
<path d="M14.682 18.5574L9.81484 19.9813L8.19525 25.0255H12.5137L15.4078 25.0624L13.2113 20.7819L14.682 18.5574Z" fill="#F6851B"/>
<path d="M21.2892 21.0146L21.5963 15.6446L23.0113 11.8196H16.7291L18.1254 15.6446L18.4508 21.0146L18.5627 22.7082L18.572 26.8773H21.1496L21.1683 22.7082L21.2892 21.0146Z" fill="#F6851B"/>
</svg>
