<svg width="40" height="40" viewBox="0 0 40 40" fill="none" xmlns="http://www.w3.org/2000/svg">
  <g clip-path="url(#clip0_4332_12693)">
    <rect width="40" height="40" rx="20" fill="#F1F4F9"/>
    <path d="M-5 27C-1.71889 24.1479 2.17781 21.8843 6.46784 20.3397C10.7577 18.7951 15.356 18 20 18C24.644 18 29.2423 18.7951 33.5322 20.3397C37.8222 21.8843 41.7189 24.1479 45 27" stroke="url(#paint0_linear_4332_12693)"/>
    <circle cx="16" cy="20" r="9" fill="#14F195"/>
    <circle cx="16" cy="20" r="9" fill="url(#paint1_linear_4332_12693)" fill-opacity="0.7"/>
    <circle cx="25" cy="20" r="9" fill="url(#paint2_linear_4332_12693)"/>
    <circle cx="25" cy="20" r="9" fill="url(#paint3_linear_4332_12693)" fill-opacity="0.8"/>
    <circle cx="25" cy="20" r="9" fill="url(#paint4_linear_4332_12693)" fill-opacity="0.8"/>
    <mask id="mask0_4332_12693" style="mask-type:alpha" maskUnits="userSpaceOnUse" x="16" y="12" width="8" height="16">
      <path fill-rule="evenodd" clip-rule="evenodd" d="M19.9627 27.3099C22.3603 25.6122 23.9254 22.8163 23.9254 19.655C23.9254 16.4936 22.3603 13.6977 19.9627 12C17.5651 13.6977 16 16.4936 16 19.655C16 22.8163 17.5651 25.6122 19.9627 27.3099Z" fill="#14F195"/>
      <path fill-rule="evenodd" clip-rule="evenodd" d="M19.9627 27.3099C22.3603 25.6122 23.9254 22.8163 23.9254 19.655C23.9254 16.4936 22.3603 13.6977 19.9627 12C17.5651 13.6977 16 16.4936 16 19.655C16 22.8163 17.5651 25.6122 19.9627 27.3099Z" fill="url(#paint5_linear_4332_12693)" fill-opacity="0.7"/>
    </mask>
    <g mask="url(#mask0_4332_12693)">
      <path fill-rule="evenodd" clip-rule="evenodd" d="M15.6837 6.1683L24.2224 3.88037L24.3013 4.17481L15.7626 6.46273L15.6837 6.1683ZM24.2224 4.94728L15.6837 7.2352L15.7626 7.52964L24.3013 5.24171L24.2224 4.94728ZM15.6837 8.30211L24.2224 6.01418L24.3013 6.30862L15.7626 8.59654L15.6837 8.30211ZM24.2224 7.08109L15.6837 9.36901L15.7626 9.66345L24.3013 7.37552L24.2224 7.08109ZM24.2224 8.14793L15.6837 10.4359L15.7626 10.7303L24.3013 8.44236L24.2224 8.14793ZM24.2224 9.21483L15.6837 11.5028L15.7626 11.7972L24.3013 9.50927L24.2224 9.21483ZM15.6837 12.5696L24.2224 10.2817L24.3013 10.5761L15.7626 12.864L15.6837 12.5696ZM24.2224 11.3486L15.6837 13.6365L15.7626 13.9309L24.3013 11.643L24.2224 11.3486ZM15.6837 14.7033L24.2224 12.4154L24.3013 12.7099L15.7626 14.9978L15.6837 14.7033ZM24.2224 13.4823L15.6837 15.7703L15.7626 16.0647L24.3013 13.7768L24.2224 13.4823ZM15.6837 16.8372L24.2224 14.5492L24.3013 14.8437L15.7626 17.1316L15.6837 16.8372ZM15.6837 18.0564L24.2224 15.7685L24.3013 16.063L15.7626 18.3509L15.6837 18.0564ZM24.2224 16.8354L15.6837 19.1234L15.7626 19.4178L24.3013 17.1299L24.2224 16.8354ZM15.6837 20.1903L24.2224 17.9023L24.3013 18.1968L15.7626 20.4847L15.6837 20.1903ZM24.2224 18.9692L15.6837 21.2572L15.7626 21.5516L24.3013 19.2637L24.2224 18.9692ZM24.2224 20.0361L15.6837 22.324L15.7626 22.6184L24.3013 20.3305L24.2224 20.0361ZM24.2224 21.103L15.6837 23.3909L15.7626 23.6853L24.3013 21.3974L24.2224 21.103ZM15.6837 24.4577L24.2224 22.1698L24.3013 22.4643L15.7626 24.7522L15.6837 24.4577ZM24.2224 23.2367L15.6837 25.5247L15.7626 25.8191L24.3013 23.5312L24.2224 23.2367ZM15.6837 26.5915L24.2224 24.3036L24.3013 24.598L15.7626 26.8859L15.6837 26.5915ZM24.2224 25.3705L15.6837 27.6584L15.7626 27.9528L24.3013 25.6649L24.2224 25.3705ZM15.6837 28.7253L24.2224 26.4374L24.3013 26.7318L15.7626 29.0197L15.6837 28.7253Z" fill="#14F195"/>
      <path fill-rule="evenodd" clip-rule="evenodd" d="M15.6837 6.1683L24.2224 3.88037L24.3013 4.17481L15.7626 6.46273L15.6837 6.1683ZM24.2224 4.94728L15.6837 7.2352L15.7626 7.52964L24.3013 5.24171L24.2224 4.94728ZM15.6837 8.30211L24.2224 6.01418L24.3013 6.30862L15.7626 8.59654L15.6837 8.30211ZM24.2224 7.08109L15.6837 9.36901L15.7626 9.66345L24.3013 7.37552L24.2224 7.08109ZM24.2224 8.14793L15.6837 10.4359L15.7626 10.7303L24.3013 8.44236L24.2224 8.14793ZM24.2224 9.21483L15.6837 11.5028L15.7626 11.7972L24.3013 9.50927L24.2224 9.21483ZM15.6837 12.5696L24.2224 10.2817L24.3013 10.5761L15.7626 12.864L15.6837 12.5696ZM24.2224 11.3486L15.6837 13.6365L15.7626 13.9309L24.3013 11.643L24.2224 11.3486ZM15.6837 14.7033L24.2224 12.4154L24.3013 12.7099L15.7626 14.9978L15.6837 14.7033ZM24.2224 13.4823L15.6837 15.7703L15.7626 16.0647L24.3013 13.7768L24.2224 13.4823ZM15.6837 16.8372L24.2224 14.5492L24.3013 14.8437L15.7626 17.1316L15.6837 16.8372ZM15.6837 18.0564L24.2224 15.7685L24.3013 16.063L15.7626 18.3509L15.6837 18.0564ZM24.2224 16.8354L15.6837 19.1234L15.7626 19.4178L24.3013 17.1299L24.2224 16.8354ZM15.6837 20.1903L24.2224 17.9023L24.3013 18.1968L15.7626 20.4847L15.6837 20.1903ZM24.2224 18.9692L15.6837 21.2572L15.7626 21.5516L24.3013 19.2637L24.2224 18.9692ZM24.2224 20.0361L15.6837 22.324L15.7626 22.6184L24.3013 20.3305L24.2224 20.0361ZM24.2224 21.103L15.6837 23.3909L15.7626 23.6853L24.3013 21.3974L24.2224 21.103ZM15.6837 24.4577L24.2224 22.1698L24.3013 22.4643L15.7626 24.7522L15.6837 24.4577ZM24.2224 23.2367L15.6837 25.5247L15.7626 25.8191L24.3013 23.5312L24.2224 23.2367ZM15.6837 26.5915L24.2224 24.3036L24.3013 24.598L15.7626 26.8859L15.6837 26.5915ZM24.2224 25.3705L15.6837 27.6584L15.7626 27.9528L24.3013 25.6649L24.2224 25.3705ZM15.6837 28.7253L24.2224 26.4374L24.3013 26.7318L15.7626 29.0197L15.6837 28.7253Z" fill="url(#paint6_linear_4332_12693)" fill-opacity="0.7"/>
    </g>
    <path d="M42.0235 25.6272L38.9542 25.3025L40.239 23.0771L42.0235 25.6272Z" fill="#A12881"/>
  </g>
  <defs>
    <linearGradient id="paint0_linear_4332_12693" x1="-1.56398" y1="25.3209" x2="45.0024" y2="25.948" gradientUnits="userSpaceOnUse">
      <stop stop-color="#4BCAAA"/>
      <stop offset="0.473958" stop-color="#42BBA2"/>
      <stop offset="0.755208" stop-color="#A71B7C"/>
    </linearGradient>
    <linearGradient id="paint1_linear_4332_12693" x1="15.7073" y1="28.3415" x2="11.0244" y2="9.53658" gradientUnits="userSpaceOnUse">
      <stop stop-color="#C121DE"/>
      <stop offset="1" stop-color="#14F195" stop-opacity="0"/>
    </linearGradient>
    <linearGradient id="paint2_linear_4332_12693" x1="19.8351" y1="9.95931" x2="29.818" y2="29" gradientUnits="userSpaceOnUse">
      <stop stop-color="#C92993"/>
      <stop offset="1" stop-color="#961171"/>
    </linearGradient>
    <linearGradient id="paint3_linear_4332_12693" x1="18.2741" y1="9.03426" x2="23.1306" y2="23.3726" gradientUnits="userSpaceOnUse">
      <stop stop-color="#FFDF6F"/>
      <stop offset="1" stop-color="#FFDA57" stop-opacity="0"/>
    </linearGradient>
    <linearGradient id="paint4_linear_4332_12693" x1="26.5225" y1="25.8394" x2="27.2163" y2="31.1585" gradientUnits="userSpaceOnUse">
      <stop stop-color="#FF60B4" stop-opacity="0"/>
      <stop offset="1" stop-color="#FF93E1"/>
    </linearGradient>
    <linearGradient id="paint5_linear_4332_12693" x1="19.8338" y1="26.7498" x2="13.198" y2="12.9556" gradientUnits="userSpaceOnUse">
      <stop stop-color="#C121DE"/>
      <stop offset="1" stop-color="#14F195" stop-opacity="0"/>
    </linearGradient>
    <linearGradient id="paint6_linear_4332_12693" x1="19.8524" y1="28.0999" x2="6.58932" y2="9.84298" gradientUnits="userSpaceOnUse">
      <stop stop-color="#C121DE"/>
      <stop offset="1" stop-color="#14F195" stop-opacity="0"/>
    </linearGradient>
    <clipPath id="clip0_4332_12693">
      <rect width="40" height="40" rx="20" fill="white"/>
    </clipPath>
  </defs>
</svg>
