<svg width="40" height="40" viewBox="0 0 40 40" fill="none" xmlns="http://www.w3.org/2000/svg">
  <g clip-path="url(#clip0_4332_12658)">
    <rect width="40" height="40" rx="20" fill="#F1F4F9"/>
    <path d="M12.1953 26.3652L10.2588 28.3018C9.26583 29.2947 9.26583 30.9046 10.2588 31.8975V31.8975C11.2517 32.8904 11.2517 34.5003 10.2588 35.4932L6.59863 39.1533" stroke="#24293B" stroke-width="2"/>
    <path d="M14.2459 11.1701C15.027 10.389 16.2933 10.389 17.0744 11.1701L27.1053 21.201C27.8863 21.982 27.8863 23.2483 27.1053 24.0294L22.3048 28.8298C20.1569 30.9777 16.6745 30.9777 14.5266 28.8298L9.4455 23.7487C7.29762 21.6008 7.29762 18.1184 9.4455 15.9705L14.2459 11.1701Z" fill="#DF42AB"/>
    <rect x="23.9258" y="7" width="2.59797" height="7.79392" transform="rotate(45 23.9258 7)" fill="#69708B"/>
    <rect x="29.4375" y="12.5112" width="2.59797" height="7.79392" transform="rotate(45 29.4375 12.5112)" fill="#69708B"/>
  </g>
  <defs>
    <clipPath id="clip0_4332_12658">
      <rect width="40" height="40" rx="20" fill="white"/>
    </clipPath>
  </defs>
</svg>
