<svg width="36" height="36" viewBox="0 0 36 36" fill="none" xmlns="http://www.w3.org/2000/svg">
  <path d="M28.717 16.5549C27.7617 13.2851 26.6844 11.5956 26.667 11.5653C26.6056 11.4906 25.0833 9.67568 21.4143 8.33325L20.9295 9.64832C22.6749 10.287 23.9133 11.0661 24.5943 11.5695C22.5611 10.9646 20.1423 10.5942 18 10.5942C15.8577 10.5942 13.4389 10.9646 11.4057 11.5695C12.0867 11.0662 13.325 10.287 15.0705 9.64832L14.5857 8.33325C10.9167 9.67568 9.39441 11.4906 9.333 11.5653C9.31561 11.5956 8.23828 13.2851 7.28306 16.5549C6.36244 19.706 6.0127 24.1514 6 24.3296C6.08203 24.4574 7.96875 27.6666 13.1106 27.6666L14.4139 25.7864C12.9538 25.4001 11.5614 24.7772 10.2869 23.932L11.0661 22.7658C13.1223 24.1293 15.52 24.85 18 24.85C20.48 24.85 22.8777 24.1293 24.9339 22.7658L25.7131 23.932C24.4386 24.7772 23.0462 25.4001 21.5861 25.7864L22.8894 27.6666C28.0312 27.6666 29.918 24.4574 30 24.3296C29.9873 24.1514 29.6376 19.706 28.717 16.5549ZM14.7488 20.22H13.3426V17.885H14.7488V20.22ZM22.6574 20.22H21.2512V17.885H22.6574V20.22Z" fill="black"/>
</svg>
