<svg width="36" height="36" viewBox="0 0 36 36" fill="none" xmlns="http://www.w3.org/2000/svg">
  <g clip-path="url(#clip0_4325_12147)">
    <path fill-rule="evenodd" clip-rule="evenodd" d="M18 6.29443C11.3742 6.29443 6 11.6687 6 18.2944C6 23.595 9.46012 28.0858 14.1718 29.7055C14.7607 29.7791 14.9816 29.411 14.9816 29.1165C14.9816 28.822 14.9816 28.0858 14.9816 27.0552C11.6687 27.7914 10.9325 25.4355 10.9325 25.4355C10.4172 24.0368 9.60736 23.6687 9.60736 23.6687C8.50307 22.9325 9.68098 22.9325 9.68098 22.9325C10.8589 23.0061 11.5215 24.184 11.5215 24.184C12.6258 26.0245 14.319 25.5092 14.9816 25.2147C15.0552 24.4049 15.4233 23.8895 15.7178 23.595C13.0675 23.3006 10.2699 22.2699 10.2699 17.6319C10.2699 16.3067 10.7117 15.276 11.5215 14.3926C11.4479 14.1717 11.0061 12.9202 11.6687 11.3006C11.6687 11.3006 12.6994 11.0061 14.9816 12.5521C15.9387 12.2576 16.9693 12.184 18 12.184C19.0307 12.184 20.0614 12.3312 21.0184 12.5521C23.3006 11.0061 24.3313 11.3006 24.3313 11.3006C24.9939 12.9202 24.5521 14.1717 24.4785 14.4662C25.2147 15.276 25.7301 16.3803 25.7301 17.7055C25.7301 22.3435 22.9325 23.3006 20.2822 23.595C20.7239 23.9631 21.092 24.6993 21.092 25.8036C21.092 27.4233 21.092 28.6748 21.092 29.1165C21.092 29.411 21.3129 29.7791 21.9018 29.7055C26.6871 28.0858 30.0736 23.595 30.0736 18.2944C30 11.6687 24.6258 6.29443 18 6.29443Z" fill="black"/>
  </g>
  <defs>
    <clipPath id="clip0_4325_12147">
      <rect width="24" height="23.411" fill="white" transform="translate(6 6.29443)"/>
    </clipPath>
  </defs>
</svg>
