<svg width="36" height="36" viewBox="0 0 36 36" fill="none" xmlns="http://www.w3.org/2000/svg">
  <path d="M19.9218 17.5346C19.9218 22.248 16.1337 26.069 11.461 26.069C6.78841 26.069 3 22.2471 3 17.5346C3 12.8221 6.78812 9 11.461 9C16.134 9 19.9218 12.8212 19.9218 17.5346Z" fill="#151515"/>
  <path d="M29.2034 17.5352C29.2034 21.9718 27.3094 25.5699 24.9729 25.5699C22.6364 25.5699 20.7424 21.9718 20.7424 17.5352C20.7424 13.0985 22.6361 9.50049 24.9726 9.50049C27.3091 9.50049 29.2031 13.0974 29.2031 17.5352" fill="#151515"/>
  <path d="M32.9989 17.5357C32.9989 21.5098 32.3329 24.7335 31.511 24.7335C30.6892 24.7335 30.0234 21.5107 30.0234 17.5357C30.0234 13.5607 30.6895 10.3379 31.511 10.3379C32.3326 10.3379 32.9989 13.5604 32.9989 17.5357Z" fill="#151515"/>
</svg>
