<svg width="36" height="36" viewBox="0 0 36 36" fill="none" xmlns="http://www.w3.org/2000/svg">
  <path d="M27.543 13.0401C27.5576 13.2545 27.5576 13.4688 27.5576 13.6852C27.5576 20.2765 22.6045 27.8783 13.5476 27.8783V27.8743C10.8722 27.8783 8.25229 27.1019 6 25.638C6.38903 25.6855 6.78001 25.7092 7.17197 25.7101C9.38915 25.7121 11.543 24.9585 13.2873 23.5707C11.1803 23.5302 9.3326 22.1384 8.68714 20.1066C9.42523 20.2508 10.1857 20.2212 10.9102 20.0206C8.61304 19.5505 6.96039 17.5058 6.96039 15.1312C6.96039 15.1095 6.96039 15.0888 6.96039 15.068C7.64485 15.4542 8.41121 15.6686 9.19512 15.6923C7.03157 14.2274 6.36466 11.3116 7.67118 9.03181C10.1711 12.1482 13.8596 14.0427 17.8191 14.2432C17.4223 12.5107 17.9644 10.6952 19.2436 9.47729C21.2268 7.58869 24.3459 7.6855 26.2101 9.69361C27.3129 9.47334 28.3698 9.06342 29.337 8.48262C28.9694 9.63731 28.2001 10.6182 27.1725 11.2414C28.1484 11.1249 29.102 10.8602 30 10.4562C29.3389 11.4597 28.5063 12.3339 27.543 13.0401Z" fill="black"/>
</svg>
