<svg width="36" height="36" viewBox="0 0 36 36" fill="none" xmlns="http://www.w3.org/2000/svg">
  <path fill-rule="evenodd" clip-rule="evenodd" d="M27.3682 10.05C28.4045 10.3363 29.2227 11.1545 29.4955 12.1909C30 14.0727 30 18 30 18C30 18 30 21.9272 29.5091 23.809C29.2227 24.859 28.4182 25.6772 27.3818 25.95C25.5 26.4545 18 26.4545 18 26.4545C18 26.4545 10.5 26.4545 8.63182 25.95C7.59545 25.6636 6.77727 24.8454 6.50455 23.809C6 21.9272 6 18 6 18C6 18 6 14.0727 6.49091 12.1909C6.77727 11.1409 7.58182 10.3227 8.61818 10.05C10.5 9.54541 18 9.54541 18 9.54541C18 9.54541 25.5 9.54541 27.3682 10.05ZM21.8157 18.0005L15.543 21.5732V14.4277L21.8157 18.0005Z" fill="#151515"/>
</svg>
