<svg width="40" height="40" viewBox="0 0 40 40" fill="none" xmlns="http://www.w3.org/2000/svg">
  <g clip-path="url(#clip0_4332_12685)">
    <rect width="40" height="40" rx="20" fill="url(#paint0_linear_4332_12685)"/>
    <path d="M28.9005 24.615L25.764 27.7817C25.6961 27.8505 25.614 27.9054 25.5226 27.9429C25.4312 27.9805 25.3326 27.9999 25.2329 28H10.3644C10.2935 28 10.2241 27.9805 10.1648 27.9439C10.1055 27.9073 10.0588 27.8552 10.0304 27.794C10.0021 27.7328 9.99328 27.6652 10.0051 27.5993C10.017 27.5335 10.049 27.4723 10.0971 27.4233L13.2302 24.2567C13.298 24.1879 13.3801 24.133 13.4715 24.0954C13.5629 24.0579 13.6615 24.0384 13.7612 24.0383H28.6297C28.7012 24.037 28.7716 24.0555 28.832 24.0917C28.8924 24.1279 28.9401 24.1801 28.969 24.2418C28.998 24.3034 29.0069 24.3717 28.9947 24.4382C28.9825 24.5046 28.9497 24.5661 28.9005 24.615ZM25.764 18.2367C25.6959 18.1682 25.6136 18.1136 25.5223 18.076C25.431 18.0385 25.3326 18.0189 25.2329 18.0184H10.3644C10.2935 18.0184 10.2241 18.0379 10.1648 18.0745C10.1055 18.1111 10.0588 18.1632 10.0304 18.2244C10.0021 18.2856 9.99328 18.3532 10.0051 18.4191C10.017 18.4849 10.049 18.5461 10.0971 18.5951L13.2302 21.7634C13.2982 21.8318 13.3805 21.8865 13.4718 21.9241C13.5631 21.9616 13.6616 21.9812 13.7612 21.9817H28.6297C28.7005 21.9813 28.7695 21.9616 28.8286 21.9249C28.8878 21.8882 28.9341 21.8361 28.9623 21.7749C28.9904 21.7138 28.9991 21.6463 28.9871 21.5806C28.9752 21.5149 28.9433 21.4539 28.8952 21.405L25.764 18.2367ZM10.3644 15.9617H25.2329C25.3326 15.9616 25.4312 15.9422 25.5226 15.9046C25.614 15.8671 25.6961 15.8122 25.764 15.7434L28.9005 12.5767C28.9497 12.5278 28.9825 12.4663 28.9947 12.3999C29.0069 12.3335 28.998 12.2651 28.969 12.2035C28.9401 12.1418 28.8924 12.0896 28.832 12.0534C28.7716 12.0173 28.7012 11.9987 28.6297 12.0001H13.7612C13.6615 12.0002 13.5629 12.0196 13.4715 12.0572C13.3801 12.0947 13.298 12.1496 13.2302 12.2184L10.0971 15.3851C10.049 15.434 10.017 15.4952 10.0051 15.561C9.99328 15.6269 10.0021 15.6945 10.0304 15.7557C10.0588 15.8169 10.1055 15.869 10.1648 15.9056C10.2241 15.9422 10.2935 15.9617 10.3644 15.9617Z" fill="white"/>
  </g>
  <defs>
    <linearGradient id="paint0_linear_4332_12685" x1="20" y1="-3.57628e-07" x2="32" y2="40" gradientUnits="userSpaceOnUse">
      <stop stop-color="#1BF99F"/>
      <stop offset="1" stop-color="#9A46FF"/>
    </linearGradient>
    <clipPath id="clip0_4332_12685">
      <rect width="40" height="40" rx="20" fill="white"/>
    </clipPath>
  </defs>
</svg>
