<svg width="161" height="67" viewBox="0 0 161 67" fill="none" xmlns="http://www.w3.org/2000/svg">
  <circle cx="27.4985" cy="27.4986" r="21.0455" transform="rotate(-22.5066 27.4985 27.4986)" fill="#1C1D21"/>
  <ellipse cx="26.4531" cy="63.5" rx="17" ry="3.5" fill="#1C1D21"/>
  <circle cx="83.6216" cy="44.0455" r="21.0455" fill="#1C1D21"/>
  <circle cx="139.741" cy="44.0455" r="20.5455" stroke="black"/>
  <path d="M35.8463 23.6187C36.5363 23.2372 36.8165 22.548 36.428 21.6103C36.0057 20.5911 35.1087 20.2463 34.1098 20.5645C32.876 20.8848 30.63 21.7198 29.47 22.1048C28.8909 21.3895 29.0477 21.0856 29.1692 20.1276C29.7653 18.4954 29.6268 17.024 29.0018 15.5156C28.6639 14.7003 27.7566 14.2162 27.3206 14.3016C26.5461 14.4792 26.5579 15.1907 26.5445 16.2953C26.5156 17.9313 26.0901 18.1556 25.8519 19.4006C25.6074 20.7438 25.7851 20.7181 24.1515 23.258C22.7085 25.5756 23.1694 26.0057 20.9992 27.4781C20.5906 27.743 19.4282 28.4635 17.6986 29.1802C17.2562 29.3635 17.3229 30.4345 18.6068 33.5331C19.8738 36.5909 20.6411 37.4195 21.0435 37.2527C22.9338 36.4695 24.5362 35.9011 25.7001 35.7531C27.6697 35.844 30.0272 35.3926 31.7205 34.93C34.9228 34.1286 36.1656 33.3747 36.9893 32.7469C37.4043 32.384 37.6314 31.9077 37.5387 31.2294C37.4629 30.592 37.2307 30.2584 36.8244 30.1878C36.8244 30.1878 38.2192 29.8008 37.916 28.1591C37.7896 27.3994 37.3016 26.7896 36.7915 26.8097C37.5958 26.4764 38.0642 25.9002 37.7456 24.7903C37.4609 23.762 36.6275 23.343 35.8463 23.6187L35.8463 23.6187Z" fill="#FFF1FA"/>
  <path d="M92.8174 43.6569C93.6009 43.5685 94.1235 43.0391 94.1235 42.0241C94.1235 40.9208 93.4269 40.259 92.3822 40.1706C91.1199 39.9942 88.7253 39.9059 87.5063 39.8175C87.2451 38.935 87.5063 38.7143 87.9852 37.8757C89.1607 36.596 89.5959 35.1837 89.5959 33.5509C89.5959 32.6684 88.943 31.8739 88.5075 31.7859C87.724 31.6535 87.4626 32.3153 87.0274 33.3306C86.3745 34.831 85.8955 34.8753 85.1988 35.9342C84.4588 37.0816 84.6328 37.1259 82.1514 38.847C79.9311 40.4357 80.1923 41.0095 77.6238 41.539C77.1448 41.6273 75.7952 41.848 73.923 41.848C73.4441 41.848 73.0957 42.863 73.0957 46.2171C73.0957 49.5269 73.4875 50.5861 73.923 50.5861C75.9692 50.5861 77.6671 50.6745 78.799 50.9832C80.5838 51.8212 82.9346 52.3066 84.6759 52.5273C87.9412 53.0128 89.3779 52.7921 90.3791 52.5273C90.9015 52.3509 91.2935 51.9979 91.4675 51.3357C91.6415 50.7179 91.5547 50.3208 91.2064 50.1C91.2064 50.1 92.6431 50.2764 92.9914 48.6437C93.1654 47.8935 92.948 47.1434 92.4691 46.9667C93.3397 46.9667 93.993 46.6136 94.1235 45.4663C94.2541 44.4073 93.6446 43.7012 92.8174 43.6568V43.6569Z" fill="#FFF1FA"/>
  <path d="M149.682 44.7794C150.495 44.871 151.037 45.4205 151.037 46.4737C151.037 47.6185 150.314 48.3053 149.23 48.397C147.92 48.58 145.435 48.6717 144.17 48.7634C143.899 49.6792 144.17 49.9083 144.667 50.7784C145.887 52.1063 146.339 53.5719 146.339 55.2662C146.339 56.182 145.661 57.0064 145.209 57.0978C144.396 57.2351 144.125 56.5484 143.674 55.4948C142.996 53.9379 142.499 53.8919 141.776 52.7931C141.008 51.6025 141.189 51.5565 138.614 49.7706C136.31 48.122 136.581 47.5266 133.916 46.9771C133.419 46.8854 132.018 46.6564 130.075 46.6564C129.578 46.6564 129.217 45.6032 129.217 42.1227C129.217 38.6881 129.623 37.589 130.075 37.589C132.199 37.589 133.961 37.4973 135.135 37.1769C136.987 36.3074 139.426 35.8036 141.233 35.5746C144.622 35.0708 146.113 35.2999 147.152 35.5746C147.694 35.7576 148.1 36.124 148.281 36.8111C148.462 37.4522 148.371 37.8643 148.01 38.0934C148.01 38.0934 149.501 37.9103 149.862 39.6046C150.043 40.383 149.817 41.1615 149.32 41.3448C150.224 41.3448 150.902 41.7112 151.037 42.9017C151.173 44.0006 150.54 44.7334 149.682 44.7794V44.7794Z" fill="#1C1D21"/>
</svg>
