<svg width="87" height="76" viewBox="0 0 87 76" fill="none" xmlns="http://www.w3.org/2000/svg">
  <path fill-rule="evenodd" clip-rule="evenodd" d="M76.8784 19.7993L77.3303 19.9648L77.3285 22.9792H77.3309L77.3309 28H82C84.7614 28 87 30.2386 87 33V71C87 73.7614 84.7614 76 82 76H78H77H10H6H5C2.23858 76 0 73.7614 0 71V33C0 30.2386 2.23858 28 5 28H9.6786V22.9792L9.67773 22.9798V19.9606L10.1364 19.7975C15.1318 18.0195 20.5688 17.1217 26.2485 17.1143V12H26.9335C35.4326 12 41.5319 17.4577 43.4651 19.4622C45.1501 17.6542 51.1301 12 60.0751 12H60.76V17.116C69.9638 17.3162 76.5934 19.6957 76.8784 19.7993ZM11.0502 20.9488V64.3368L11.0493 64.3372C23.6668 60.1542 35.7964 62.4419 41.0345 63.8313C38.4927 61.6093 33.5536 58.2402 26.9351 58.2402H26.2501V49.7663C22.9324 49.8053 19.8207 50.3329 16.9438 51.3571L16.4888 50.047C19.5119 48.9702 22.7955 48.4085 26.2503 48.3769V41.435C22.9245 41.4778 19.8202 42.0005 16.9427 43.0247L16.4895 41.7147C19.512 40.6389 22.7767 40.0809 26.251 40.0456V33.1018C22.9332 33.1371 19.8215 33.669 16.9446 34.6933L16.4896 33.3832C19.5127 32.3069 22.7963 31.7532 26.2511 31.7142V18.5037C20.8679 18.5105 15.7729 19.3288 11.0502 20.9488ZM46.0628 63.7656C59.6448 59.9311 72.4851 63.2845 75.9619 64.3527L75.9629 64.3533V20.9526C74.3238 20.4193 68.3878 18.6754 60.7621 18.503L60.7627 31.7222C66.347 31.8835 70.3473 33.3212 70.521 33.3845L70.055 34.6908C70.0148 34.6747 66.103 33.2741 60.7621 33.1111V40.0549C66.3465 40.2161 70.3468 41.6526 70.5205 41.7158L70.0557 43.0221C70.0148 43.0073 66.103 41.6067 60.7621 41.4437L60.7627 48.3868C66.3471 48.5481 70.3474 49.9858 70.5211 50.049L70.0551 51.3553C70.0148 51.3392 66.1031 49.9387 60.7622 49.7756V58.2409H60.0772C53.5699 58.2409 48.6474 61.541 46.0628 63.7656Z" fill="black"/>
  <path d="M58.7695 1L61.4622 2.32271L48.676 28.3518L45.3456 31.7294L45.9833 27.0291L58.7695 1Z" fill="#ECFFF8" stroke="black" stroke-linecap="round" stroke-linejoin="round"/>
</svg>
