<svg xmlns="http://www.w3.org/2000/svg" width="151" height="32" viewBox="0 0 151 32" fill="none">
  <g clip-path="url(#clip0_423_2076)">
    <path fill-rule="evenodd" clip-rule="evenodd" d="M16 32C24.8362 32 32 24.8362 32 16C32 7.16384 24.8362 0 16 0C7.16384 0 0 7.16384 0 16C0 24.8362 7.16384 32 16 32ZM9.80791 9.19774L15.7966 15.1864V9.49152C15.7966 9.44633 15.7966 9.37853 15.8192 9.33333C15.8418 9.28814 15.8644 9.24294 15.9096 9.19774C15.9548 9.15254 16 9.12994 16.0452 9.10734C16.0904 9.08475 16.1582 9.08474 16.2034 9.08474H22.9379H22.9605C22.9605 9.08474 22.9605 9.08474 22.9831 9.08474C23.0282 9.08474 23.096 9.10734 23.1412 9.10734C23.1864 9.12994 23.2316 9.15254 23.2768 9.19774C23.322 9.24294 23.3446 9.28814 23.3672 9.33333C23.3898 9.37853 23.3898 9.44633 23.3898 9.49152V16.1808C23.3898 16.2034 23.3898 16.2034 23.3898 16.226V22.9605C23.3898 23.0282 23.3898 23.0734 23.3672 23.1186C23.3446 23.1638 23.322 23.209 23.2768 23.2542C23.2316 23.2994 23.1864 23.322 23.1412 23.3446C23.096 23.3672 23.0282 23.3672 22.9831 23.3672C22.9153 23.3672 22.8701 23.3672 22.8023 23.3446C22.7571 23.322 22.6893 23.2994 22.6667 23.2542L16.678 17.2655V22.9605C16.678 23.0056 16.678 23.0734 16.6554 23.1186C16.6328 23.1638 16.6102 23.209 16.565 23.2542C16.5198 23.2994 16.4746 23.322 16.4294 23.3446C16.3842 23.3672 16.3164 23.3672 16.2712 23.3672H9.51412H9.49152C9.44633 23.3672 9.37853 23.3446 9.33333 23.3446C9.28814 23.322 9.24294 23.2994 9.19774 23.2542C9.15254 23.209 9.12994 23.1638 9.10734 23.1186C9.08475 23.0734 9.08475 23.0056 9.08475 22.9605V16.226C9.08475 16.1808 9.08475 16.1582 9.10734 16.113V9.49152C9.10734 9.40113 9.12994 9.33333 9.17514 9.24294C9.22034 9.17514 9.28814 9.10734 9.37853 9.08474C9.44633 9.06215 9.53672 9.03955 9.62712 9.06215C9.67232 9.08475 9.76271 9.12994 9.80791 9.19774Z" fill="#EE46BC"/>
  </g>
  <path d="M51.227 8.58068H53.3779V23.4476H51.227L42.151 11.4125V23.4476H40V8.58068H42.6362L51.227 19.7636V8.58068Z" fill="white"/>
  <path d="M55.2939 23.4476V8.58068H66.3111V10.6914H57.458V14.7293H65.6422V16.8401H57.4449V21.35H66.298V23.4607H55.2939V23.4476Z" fill="white"/>
  <path d="M66.7561 16.0131C66.7561 11.7785 69.8645 8.26501 74.4812 8.26501C79.1373 8.26501 82.2325 11.7654 82.2325 16.0131C82.2325 20.2739 79.1241 23.735 74.4812 23.735C69.8776 23.735 66.7561 20.2739 66.7561 16.0131ZM80.0554 16.0131C80.0554 12.9322 77.8519 10.3758 74.4812 10.3758C71.1498 10.3758 68.9333 12.9322 68.9333 16.0131C68.9333 19.0809 71.1367 21.6505 74.4812 21.6505C77.8782 21.6505 80.0554 19.0809 80.0554 16.0131Z" fill="white"/>
  <path d="M94.8105 8.58068H96.9614V23.4476H94.8105L85.7345 11.4125V23.4476H83.5835V8.58068H86.2197L94.8105 19.7636V8.58068Z" fill="white"/>
  <path d="M103.65 23.4476V8.58068H114.667V10.6914H105.814V14.7293H114.011V16.8401H105.814V21.35H114.667V23.4607H103.65V23.4476Z" fill="white"/>
  <path d="M128.346 8.58068H130.694L124.294 23.4476H121.907L115.493 8.58068H117.893L123.153 20.8518L128.346 8.58068Z" fill="white"/>
  <path d="M147.693 23.4476H145.542V11.9107L140.545 23.4476H138.682L133.725 11.9762V23.4476H131.574V8.58068H134.551L139.679 20.4323L144.781 8.58068H147.693V23.4476Z" fill="white"/>
  <defs>
    <clipPath id="clip0_423_2076">
      <path d="M0 12.8C0 8.31958 0 6.07937 0.871948 4.36808C1.63893 2.86278 2.86278 1.63893 4.36808 0.871948C6.07937 0 8.31958 0 12.8 0H19.2C23.6804 0 25.9206 0 27.6319 0.871948C29.1372 1.63893 30.3611 2.86278 31.1281 4.36808C32 6.07937 32 8.31958 32 12.8V19.2C32 23.6804 32 25.9206 31.1281 27.6319C30.3611 29.1372 29.1372 30.3611 27.6319 31.1281C25.9206 32 23.6804 32 19.2 32H12.8C8.31958 32 6.07937 32 4.36808 31.1281C2.86278 30.3611 1.63893 29.1372 0.871948 27.6319C0 25.9206 0 23.6804 0 19.2V12.8Z" fill="white"/>
    </clipPath>
  </defs>
</svg>
