<svg width="59" height="101" viewBox="0 0 59 101" fill="none" xmlns="http://www.w3.org/2000/svg">
  <circle cx="40" cy="35" r="12" fill="#F7F0FF" stroke="black" stroke-linecap="round" stroke-linejoin="round"/>
  <path fill-rule="evenodd" clip-rule="evenodd" d="M35.7423 30.3272L39.8365 34.4739L39.8659 30.5551C39.867 30.4018 39.9997 30.2715 40.1532 30.2726L44.783 30.3073C44.9366 30.3084 45.0672 30.4408 45.0661 30.594L45.0315 35.2134L44.9969 39.8328C44.9958 39.9861 44.8632 40.1165 44.7096 40.1153C44.6218 40.1147 44.5563 40.0704 44.4908 40.0261L40.4183 35.9014L40.389 39.8203C40.3878 39.9735 40.2552 40.1039 40.1016 40.1027L35.45 40.0679C35.2964 40.0668 35.1657 39.9344 35.1668 39.7812L35.2014 35.1618L35.2362 30.5204C35.2373 30.3672 35.3699 30.2368 35.5235 30.238C35.6113 30.2386 35.6987 30.2831 35.7423 30.3272Z" fill="black"/>
  <path fill-rule="evenodd" clip-rule="evenodd" d="M58.375 35H0.625V53.3333H58.375V35ZM10.9375 46.331C10.4688 46.3288 10.0471 46.0487 9.86942 45.6204C9.69126 45.192 9.79208 44.7001 10.124 44.3731C10.4564 44.0466 10.955 43.9493 11.3878 44.1271C11.8206 44.3049 12.1028 44.7223 12.1028 45.1852C12.1028 45.4898 11.9798 45.7822 11.7612 45.9973C11.5425 46.2124 11.246 46.3324 10.9375 46.331ZM19.1875 46.331C18.7184 46.331 18.2953 46.0519 18.1157 45.6235C17.9362 45.1957 18.0352 44.7028 18.3671 44.3749C18.699 44.0471 19.1981 43.9493 19.6313 44.1266C20.065 44.304 20.3477 44.7218 20.3477 45.1852C20.3477 45.8181 19.8284 46.331 19.1875 46.331ZM58.375 55.1667H0.625V71.6667H58.375V55.1667ZM10.9375 64.5769C10.4688 64.5745 10.0471 64.291 9.86942 63.8573C9.69125 63.4236 9.79208 62.9255 10.124 62.5944C10.4564 62.2639 10.955 62.1654 11.3878 62.3454C11.8206 62.5254 12.1028 62.948 12.1028 63.4167C12.1028 63.7251 11.9798 64.0211 11.7612 64.2389C11.5425 64.4567 11.246 64.5782 10.9375 64.5768L10.9375 64.5769ZM19.1875 64.5769C18.7184 64.5769 18.2953 64.2942 18.1157 63.8605C17.9362 63.4273 18.0352 62.9282 18.3671 62.5963C18.699 62.2643 19.1981 62.1653 19.6313 62.3449C20.065 62.5244 20.3477 62.9475 20.3477 63.4167C20.3477 64.0575 19.8284 64.5768 19.1875 64.5768L19.1875 64.5769ZM50.125 94.8654V101H46V94.8654H13V101H8.875V94.8654H0.625V74.4167H58.375V94.8654H50.125ZM9.86942 85.0774C10.0471 85.5074 10.4688 85.7885 10.9375 85.7908L10.9375 85.7908C11.246 85.7922 11.5425 85.6717 11.7612 85.4558C11.9798 85.2399 12.1028 84.9464 12.1028 84.6406C12.1028 84.1759 11.8206 83.7569 11.3878 83.5784C10.955 83.4 10.4564 83.4976 10.124 83.8254C9.79208 84.1536 9.69125 84.6474 9.86942 85.0774ZM18.1157 85.0806C18.2953 85.5106 18.7184 85.7908 19.1875 85.7908L19.1875 85.7908C19.8284 85.7908 20.3477 85.2759 20.3477 84.6405C20.3477 84.1754 20.065 83.7559 19.6313 83.5779C19.1981 83.3999 18.699 83.4981 18.3671 83.8272C18.0352 84.1563 17.9362 84.6511 18.1157 85.0806Z" fill="black"/>
  <circle cx="17" cy="10" r="9" fill="#F7F0FF" stroke="black" stroke-linecap="round" stroke-linejoin="round"/>
  <path fill-rule="evenodd" clip-rule="evenodd" d="M13.8077 6.49527L16.8784 9.60533L16.9004 6.6662C16.9012 6.55126 17.0007 6.45349 17.1159 6.45435L20.5882 6.48034C20.7034 6.4812 20.8014 6.58046 20.8005 6.69539L20.7746 10.16L20.7487 13.6245C20.7478 13.7395 20.6483 13.8372 20.5332 13.8364C20.4673 13.8359 20.4182 13.8027 20.3691 13.7695L17.3147 10.6759L17.2927 13.6151C17.2919 13.73 17.1924 13.8278 17.0772 13.8269L13.5884 13.8008C13.4732 13.7999 13.3752 13.7007 13.3761 13.5858L13.402 10.1212L13.4281 6.64021C13.429 6.52528 13.5284 6.4275 13.6436 6.42836C13.7094 6.42885 13.775 6.46218 13.8077 6.49527Z" fill="black"/>
</svg>
