<svg width="24" height="24" viewBox="0 0 24 24" fill="inherit" xmlns="http://www.w3.org/2000/svg">
  <path d="M19.8677 12.1676C20.5379 12.092 20.9849 11.6392 20.9849 10.7711C20.9849 9.82746 20.3891 9.26142 19.4956 9.1858C18.4159 9.03493 16.3678 8.95937 15.3252 8.8838C15.1018 8.12898 15.3252 7.94018 15.7348 7.22296C16.7402 6.1285 17.1125 4.92053 17.1125 3.52404C17.1125 2.76921 16.554 2.08967 16.1816 2.01438C15.5114 1.90116 15.2878 2.46724 14.9156 3.33558C14.3572 4.61884 13.9475 4.65679 13.3517 5.56246C12.7187 6.54376 12.8675 6.58164 10.7452 8.05369C8.84622 9.4125 9.06964 9.90325 6.87277 10.3561C6.46316 10.4317 5.30885 10.6205 3.70755 10.6205C3.29794 10.6205 3 11.4885 3 14.3573C3 17.1881 3.33507 18.0941 3.70755 18.0941C5.45766 18.0941 6.90987 18.1696 7.87795 18.4337C9.40444 19.1504 11.4151 19.5656 12.9044 19.7544C15.6972 20.1696 16.926 19.9808 17.7823 19.7544C18.2291 19.6035 18.5644 19.3015 18.7132 18.7352C18.8621 18.2068 18.7878 17.8671 18.4899 17.6784C18.4899 17.6784 19.7187 17.8292 20.0166 16.4328C20.1654 15.7911 19.9795 15.1495 19.5699 14.9984C20.3145 14.9984 20.8733 14.6964 20.9849 13.7151C21.0966 12.8094 20.5753 12.2055 19.8677 12.1675V12.1676Z" fill="inherit"/>
</svg>
