<svg width="24" height="24" viewBox="0 0 24 24" fill="inherit" xmlns="http://www.w3.org/2000/svg">
  <path d="M19.8677 11.8324C20.5379 11.908 20.9849 12.3608 20.9849 13.2289C20.9849 14.1725 20.3891 14.7386 19.4956 14.8142C18.4159 14.9651 16.3678 15.0406 15.3252 15.1162C15.1018 15.871 15.3252 16.0598 15.7348 16.777C16.7402 17.8715 17.1125 19.0795 17.1125 20.476C17.1125 21.2308 16.554 21.9103 16.1816 21.9856C15.5114 22.0988 15.2878 21.5328 14.9156 20.6644C14.3572 19.3812 13.9475 19.3432 13.3517 18.4375C12.7187 17.4562 12.8675 17.4184 10.7452 15.9463C8.84622 14.5875 9.06964 14.0967 6.87277 13.6439C6.46316 13.5683 5.30885 13.3795 3.70755 13.3795C3.29794 13.3795 3 12.5115 3 9.64273C3 6.81187 3.33507 5.90592 3.70755 5.90592C5.45766 5.90592 6.90987 5.83036 7.87795 5.56628C9.40444 4.8496 11.4151 4.43441 12.9044 4.24562C15.6972 3.83041 16.926 4.01919 17.7823 4.24562C18.2291 4.39648 18.5644 4.69847 18.7132 5.26479C18.8621 5.79321 18.7878 6.13286 18.4899 6.32165C18.4899 6.32165 19.7187 6.17078 20.0166 7.56723C20.1654 8.20886 19.9795 8.85048 19.5699 9.0016C20.3145 9.0016 20.8733 9.30359 20.9849 10.2849C21.0966 11.1906 20.5753 11.7945 19.8677 11.8325V11.8324Z" fill="inherit"/>
</svg>
